<?xml version="1.0" standalone="no"?>
<!DOCTYPE svg PUBLIC "-//W3C//DTD SVG 20010904//EN"
 "http://www.w3.org/TR/2001/REC-SVG-20010904/DTD/svg10.dtd">
<svg version="1.0" xmlns="http://www.w3.org/2000/svg"
 width="621.000000pt" height="621.000000pt" viewBox="0 0 621.000000 621.000000"
 preserveAspectRatio="xMidYMid meet">

<g transform="translate(0.000000,621.000000) scale(0.100000,-0.100000)"
fill="#000000" stroke="none">
<path d="M2955 5826 c-261 -52 -460 -230 -521 -466 -18 -70 -23 -214 -11 -308
8 -62 8 -63 -12 -52 -26 13 -52 1 -80 -39 -18 -25 -21 -44 -21 -124 0 -106 22
-238 45 -273 20 -30 193 -154 225 -161 16 -3 33 -18 45 -41 12 -22 46 -54 87
-82 l67 -45 1 -101 0 -102 -92 -60 c-135 -87 -236 -134 -419 -197 -90 -31
-182 -67 -204 -80 -22 -13 -71 -60 -109 -105 -57 -67 -72 -93 -88 -148 -10
-37 -18 -75 -18 -86 0 -11 -26 -58 -59 -105 -92 -136 -141 -228 -271 -511
-130 -280 -160 -357 -160 -400 0 -32 182 -249 391 -465 78 -81 138 -150 133
-154 -5 -5 -28 -13 -52 -19 -40 -9 -50 -7 -158 39 -64 27 -121 49 -128 49 -6
0 -62 -25 -125 -55 l-114 -55 -93 50 c-99 53 -115 58 -133 36 -29 -35 -92 -66
-160 -81 -66 -14 -88 -25 -220 -116 -80 -56 -159 -113 -175 -128 l-28 -26 5
-249 4 -249 187 -179 c102 -99 186 -183 186 -188 0 -4 -44 -11 -97 -15 -54 -4
-109 -8 -123 -10 -14 -2 -52 -6 -85 -10 -38 -5 -66 -14 -77 -25 -16 -18 -16
-18 15 -18 68 2 168 -15 190 -32 21 -17 66 -19 553 -27 617 -11 3711 -9 4049
2 190 6 235 11 260 25 17 9 61 25 100 35 84 22 69 31 -57 34 -48 1 -101 6
-120 11 -18 6 -61 10 -95 10 -35 0 -63 4 -63 8 0 5 16 16 35 25 22 11 42 31
56 59 66 131 153 261 210 310 l59 52 0 232 0 231 -52 35 c-87 57 -254 151
-398 223 l-135 68 -162 -2 c-90 -1 -163 0 -163 3 0 3 13 45 30 92 l29 85 -41
83 -41 83 31 136 c18 75 35 142 37 150 4 8 -14 35 -40 64 -40 46 -45 56 -45
99 l0 49 -65 42 -64 43 5 77 6 78 -56 55 c-55 53 -56 56 -56 110 0 55 -1 55
-71 128 l-71 73 7 55 7 55 -85 153 c-47 84 -96 171 -110 193 -34 53 -122 111
-251 164 -97 41 -106 46 -106 71 0 22 -8 32 -39 48 -37 18 -43 19 -82 5 -55
-20 -57 -19 -71 10 -8 19 -19 25 -42 25 -24 0 -42 12 -79 49 l-48 49 -45 -15
c-68 -23 -74 -16 -74 74 l0 78 40 23 c58 33 106 78 120 112 9 23 19 30 39 30
29 0 71 26 173 107 53 42 70 62 78 93 21 77 31 151 33 238 2 71 -1 92 -17 115
-26 38 -66 58 -90 45 -9 -5 -19 -8 -20 -6 -2 1 0 28 5 58 12 88 10 219 -6 295
-46 221 -233 412 -458 469 -87 23 -212 27 -292 12z m295 -52 c206 -61 365
-222 416 -424 24 -93 22 -283 -4 -370 -115 -383 -175 -579 -183 -601 -6 -15
-29 -40 -52 -56 -71 -51 -249 -150 -304 -169 -51 -18 -55 -18 -102 -1 -64 23
-254 128 -315 175 -51 39 -67 70 -105 202 -11 36 -44 151 -74 256 -31 106 -60
218 -66 250 -16 84 -13 228 5 303 48 194 212 369 404 430 104 33 278 35 380 5z
m-823 -826 c25 -28 48 -73 57 -113 l6 -30 -21 25 c-54 65 -70 80 -84 80 -16 0
-19 -51 -5 -105 7 -27 8 -25 10 20 2 28 5 40 7 28 3 -14 9 -20 19 -16 18 7 17
-5 -1 -37 -8 -14 -14 -36 -14 -50 l-1 -25 13 24 c16 33 29 35 58 12 l24 -19
-21 -24 c-26 -29 -36 -56 -24 -63 6 -4 10 1 10 9 0 19 40 22 58 4 18 -18 14
-28 -11 -28 -15 0 -28 -9 -35 -24 -8 -19 -16 -23 -34 -19 -29 7 40 -46 101
-76 39 -20 59 -53 49 -81 -3 -10 -61 28 -191 124 -28 21 -48 109 -54 237 -5
99 -3 119 12 142 21 33 45 34 72 5z m1350 0 c20 -19 23 -31 23 -102 0 -82 -10
-162 -29 -232 -9 -33 -24 -50 -93 -100 -79 -58 -120 -84 -132 -84 -3 0 -6 11
-6 24 0 26 23 56 43 56 7 1 41 19 77 41 36 22 55 38 43 34 -16 -4 -25 0 -33
15 -13 25 -21 25 -48 0 -28 -27 -32 -25 -32 10 0 30 30 70 52 70 6 0 20 -8 31
-17 20 -18 20 -17 13 12 -4 17 -15 39 -24 49 -11 13 -12 17 -3 11 10 -6 13 -4
9 6 -3 8 0 23 7 33 13 17 14 17 34 -3 12 -12 21 -28 21 -36 0 -8 5 -15 10 -15
10 0 6 32 -11 78 -17 44 -10 58 11 25 11 -18 21 -33 23 -33 2 0 5 27 6 60 2
55 0 60 -19 60 -13 0 -35 -20 -62 -54 -23 -30 -44 -53 -46 -51 -9 9 36 111 61
136 34 35 44 36 74 7z m-1229 -357 c3 -8 -1 -12 -9 -9 -7 2 -15 10 -17 17 -3
8 1 12 9 9 7 -2 15 -10 17 -17z m12 -41 c0 -5 -2 -10 -4 -10 -3 0 -8 5 -11 10
-3 6 -1 10 4 10 6 0 11 -4 11 -10z m344 -429 c153 -116 248 -126 357 -40 22
17 42 29 44 27 7 -7 25 -138 25 -183 0 -50 -77 -229 -115 -265 -14 -14 -33
-33 -43 -44 -78 -84 -142 -143 -233 -216 -140 -111 -390 -293 -404 -293 -6 0
-69 42 -140 94 -139 102 -170 119 -214 119 -45 0 -43 -11 4 -41 54 -34 56 -50
20 -146 -42 -111 -114 -232 -267 -448 -115 -163 -113 -161 -132 -146 -18 15
-104 17 -119 2 -8 -8 -5 -11 11 -11 12 0 39 -7 60 -15 36 -15 43 -25 105 -153
36 -75 89 -191 118 -257 47 -109 52 -128 56 -210 6 -136 6 -135 58 -135 35 0
43 -3 39 -15 -8 -21 -3 -19 69 20 72 39 120 44 203 21 27 -8 81 -17 119 -20
108 -10 115 -13 116 -50 2 -30 2 -30 6 -3 3 18 10 27 23 27 26 0 41 -29 28
-53 -9 -17 -21 -19 -121 -16 -97 3 -122 0 -185 -21 -84 -28 -77 -45 14 -30 76
13 107 13 99 0 -8 -12 -11 -13 55 5 30 8 72 15 93 15 30 0 45 7 67 30 24 26
35 30 78 30 60 0 112 -17 112 -36 0 -17 -12 -23 -55 -27 -17 -2 -35 -6 -41
-10 -22 -13 -98 -36 -106 -31 -4 3 -8 0 -8 -5 0 -13 -69 -43 -81 -35 -5 3 -9
1 -9 -3 0 -5 -29 -24 -64 -42 -51 -26 -72 -31 -102 -27 -66 10 -134 28 -139
36 -3 4 -13 6 -23 4 -9 -3 -58 4 -107 15 -97 21 -88 15 -183 132 -24 29 -123
136 -221 238 -178 186 -348 378 -369 418 -16 29 1 75 142 383 116 252 189 390
264 503 38 56 52 63 52 24 0 -43 9 -8 21 78 6 50 17 109 24 132 15 49 121 182
168 212 19 11 106 46 193 77 176 62 333 136 439 207 l70 47 3 -30 c3 -25 -5
-40 -37 -75 -40 -43 -54 -67 -28 -48 103 77 97 69 97 141 0 105 12 202 23 195
5 -3 37 -27 71 -52z m588 -88 c19 -18 28 -36 27 -57 0 -29 -1 -29 -17 14 -16
42 -20 45 -62 50 -43 6 -38 11 14 19 6 0 23 -11 38 -26z m118 -91 c0 -15 -2
-15 -10 -2 -13 20 -13 33 0 25 6 -3 10 -14 10 -23z m164 -8 c9 -3 16 -13 16
-20 0 -12 -4 -12 -21 -3 -12 6 -39 9 -60 6 -48 -6 -50 -1 -6 12 41 12 52 12
71 5z m-340 -116 c-3 -5 -9 -6 -14 -3 -4 3 -8 -23 -9 -58 -1 -81 -10 -117 -56
-221 -7 -16 -11 -36 -7 -44 3 -9 1 -13 -5 -9 -5 3 -17 -11 -25 -31 -21 -51
-30 -77 -26 -79 2 -1 -8 -13 -21 -27 -14 -14 -21 -26 -17 -26 4 0 -2 -13 -13
-29 -12 -16 -21 -34 -21 -39 0 -5 -7 -12 -15 -16 -8 -3 -14 -9 -13 -13 2 -4
-1 -10 -7 -12 -21 -9 -37 -32 -32 -45 3 -8 -1 -13 -11 -12 -11 1 -17 -7 -17
-22 0 -13 -7 -27 -15 -32 -8 -5 -15 -15 -15 -22 0 -7 -10 -12 -23 -11 -25 3
-28 -7 -9 -26 10 -10 8 -11 -7 -5 -13 5 -17 4 -13 -3 4 -6 0 -16 -8 -23 -12
-10 -15 -10 -15 0 0 10 -3 10 -15 0 -17 -14 -20 -30 -4 -30 5 0 7 5 4 10 -7
12 5 13 21 2 16 -10 -4 -27 -31 -27 -13 0 -19 -6 -17 -17 1 -9 -6 -19 -18 -23
-11 -3 -20 -11 -20 -16 0 -5 -7 -9 -15 -9 -8 0 -15 -8 -15 -17 0 -9 -8 -25
-17 -36 -10 -11 -13 -17 -6 -14 6 4 14 4 17 -1 3 -5 0 -9 -7 -9 -7 0 -30 -11
-52 -25 -39 -24 -64 -35 -102 -43 -18 -3 -105 -31 -133 -42 -8 -3 -24 -8 -35
-10 -26 -5 -135 -61 -153 -79 -7 -8 -22 -14 -33 -14 -19 0 -19 2 5 33 14 17
35 41 48 51 35 30 7 30 -56 0 -40 -19 -60 -24 -68 -16 -7 7 5 18 39 37 26 16
67 39 90 52 24 13 91 62 150 110 99 78 155 118 283 198 l45 28 -25 -29 c-13
-16 -40 -44 -60 -62 -19 -18 -42 -39 -51 -47 -9 -8 -18 -15 -21 -15 -3 0 -20
-13 -38 -30 -18 -16 -36 -27 -41 -24 -5 3 -9 -2 -9 -11 0 -9 -4 -14 -9 -10 -5
3 -16 -2 -24 -10 -9 -8 -20 -15 -26 -15 -6 0 -11 -5 -11 -10 0 -6 -11 -15 -25
-22 -13 -6 -22 -16 -18 -21 4 -6 0 -8 -10 -4 -9 3 -16 2 -14 -3 1 -5 -7 -16
-18 -25 -19 -15 -17 -15 35 -9 30 3 80 11 110 18 l55 12 113 145 c63 79 123
158 135 175 128 184 189 282 327 534 77 141 124 210 132 197 4 -6 4 -15 2 -19z
m524 -25 c56 -25 102 -51 102 -58 0 -7 -13 -29 -30 -50 -16 -20 -32 -54 -36
-74 -14 -85 -36 -143 -46 -125 -5 8 -15 44 -24 79 -1 6 -11 34 -23 63 -11 28
-18 52 -14 52 3 0 -2 9 -12 20 -10 11 -15 20 -11 20 4 0 4 5 0 12 -4 7 -9 23
-10 36 -2 14 -12 34 -23 46 -46 49 -27 45 127 -21z m-421 -160 c-11 -116 -27
-210 -52 -293 -35 -118 -48 -171 -49 -200 -1 -14 -34 -70 -73 -126 -39 -55
-83 -122 -98 -150 -14 -27 -36 -65 -48 -85 -12 -19 -35 -57 -52 -85 -16 -27
-33 -50 -37 -52 -4 -2 -8 -10 -8 -18 0 -8 -8 -14 -17 -15 -10 0 -38 -2 -63 -3
l-45 -3 78 131 c85 143 228 423 296 581 70 164 165 375 169 375 2 0 2 -26 -1
-57z m-363 -123 c-27 -44 -52 -80 -56 -80 -5 0 -8 -6 -8 -13 0 -12 -88 -168
-112 -198 -7 -9 -58 -44 -113 -79 -55 -34 -145 -97 -200 -139 -55 -42 -111
-84 -125 -92 -26 -17 -183 -59 -217 -59 -11 0 -24 -5 -30 -11 -8 -8 -17 -6
-34 10 -29 27 -38 19 191 172 234 155 417 291 562 416 62 54 124 107 137 118
13 11 29 25 35 31 27 29 15 -2 -30 -76z m524 -47 c-5 -37 -17 -82 -27 -102
-10 -20 -26 -69 -35 -110 -9 -40 -25 -90 -36 -111 -11 -21 -16 -40 -13 -44 4
-3 1 -6 -6 -6 -15 0 -44 -67 -37 -86 3 -7 -3 -18 -12 -23 -9 -6 -12 -11 -6
-11 17 0 32 22 29 43 -2 9 1 17 6 17 4 0 5 7 2 17 -5 12 -3 14 7 8 9 -5 11 -4
6 3 -4 7 -2 12 5 12 7 0 9 -11 5 -32 -3 -18 -8 -55 -10 -83 -8 -98 -25 -176
-46 -205 -12 -17 -24 -30 -28 -30 -4 0 -21 -14 -39 -30 -18 -17 -36 -30 -40
-30 -5 0 -24 -11 -44 -24 -27 -19 -55 -26 -113 -31 -46 -4 -76 -3 -76 3 0 12
148 159 226 224 l61 51 7 81 c3 45 17 144 31 221 14 77 25 151 25 164 0 44
121 191 151 184 13 -4 14 -14 7 -70z m-1367 -286 c67 -35 129 -83 129 -100 0
-18 -118 -102 -129 -91 -8 8 -40 146 -41 177 0 30 7 33 41 14z m2124 -97 c11
-13 14 -20 6 -15 -18 10 -85 84 -89 99 -4 10 38 -32 83 -84z m-2178 -42 l21
-83 -40 -36 c-45 -39 -45 -45 -2 -131 23 -45 23 -48 7 -76 -16 -28 -16 -30 5
-64 12 -19 22 -38 22 -42 0 -3 -49 -6 -108 -6 -92 0 -111 -3 -125 -18 -14 -16
-17 -53 -19 -262 l-3 -245 -74 165 c-40 91 -82 186 -93 211 l-21 46 70 94
c110 148 244 357 288 446 22 45 43 82 46 82 3 1 15 -36 26 -81z m1988 -38 c-8
-46 -13 -86 -10 -88 3 -3 5 0 5 6 0 7 6 12 14 12 8 0 17 13 21 29 7 34 35 33
35 -1 0 -13 4 -17 13 -12 8 5 8 2 -2 -9 -7 -9 -10 -17 -5 -17 5 0 5 -4 -1 -8
-5 -4 -19 -23 -29 -42 -17 -30 -38 -61 -76 -107 -6 -7 -10 -19 -10 -28 0 -9
-9 -15 -21 -15 -12 0 -23 -8 -26 -20 -3 -11 -10 -20 -15 -20 -5 0 -7 -4 -4 -8
3 -5 -1 -9 -9 -9 -8 0 -12 4 -9 9 3 4 1 8 -5 8 -5 0 1 21 14 48 12 26 32 81
44 122 37 132 79 245 88 237 1 -2 -4 -41 -12 -87z m85 -28 c0 -8 -1 -13 -3
-11 -1 2 -9 12 -16 22 -12 15 -12 17 3 11 9 -3 16 -13 16 -22z m-1495 -210
c-3 -3 -11 0 -18 7 -9 10 -8 11 6 5 10 -3 15 -9 12 -12z m145 3 c0 -14 -116
-114 -138 -120 -13 -3 -31 -13 -39 -20 -14 -15 -25 -16 -221 -19 -126 -2 -111
7 128 74 174 49 200 58 222 73 23 16 48 22 48 12z m1500 -30 c6 -8 36 -30 66
-50 57 -38 67 -55 34 -55 -10 0 -41 -12 -67 -27 -26 -16 -78 -44 -115 -63 -36
-19 -64 -39 -61 -44 4 -5 1 -6 -5 -2 -7 4 -23 -4 -36 -17 -43 -43 -47 -18 -13
83 18 52 35 93 38 90 3 -3 13 1 21 8 13 10 16 10 14 0 -3 -33 21 -17 43 27 31
66 55 81 81 50z m-365 -103 c-3 -3 -11 0 -18 7 -9 10 -8 11 6 5 10 -3 15 -9
12 -12z m-145 -82 c0 -19 -8 -20 -187 -22 l-188 -3 188 -2 187 -3 0 -30 c0
-28 -1 -29 -57 -33 l-58 -3 61 -2 c60 -2 61 -2 62 -32 l1 -30 -825 -2 c-453
-1 -854 -3 -891 -3 -63 0 -68 2 -71 23 l-3 22 293 2 293 3 -292 2 c-251 3
-293 5 -293 18 0 8 6 15 13 16 9 0 9 2 0 6 -17 6 -17 43 0 44 10 0 10 2 0 6
-7 2 -13 13 -13 24 0 18 17 19 613 21 336 2 737 2 890 0 268 -3 277 -3 277
-22z m96 8 c17 -13 16 -94 -1 -108 -19 -16 -19 -31 0 -24 11 5 14 -5 14 -50
l-1 -56 -39 0 -39 0 0 124 c0 127 4 140 40 128 8 -3 20 -9 26 -14z m-1946
-108 l0 -120 -36 0 -35 0 2 55 c2 42 6 55 18 55 13 1 13 2 -2 11 -13 8 -17 22
-16 57 2 59 4 62 40 62 l29 0 0 -120z m2405 -26 c49 -5 56 -8 40 -17 -11 -6
-40 -10 -65 -8 -29 1 -40 -1 -32 -7 11 -8 11 -10 -2 -15 -9 -4 -16 -2 -16 3 0
5 -17 3 -38 -4 -37 -13 -121 -56 -112 -57 3 0 23 -2 45 -4 22 -2 60 -10 85
-19 24 -8 46 -13 49 -11 5 6 -62 34 -100 42 -22 4 -27 8 -17 14 21 14 74 10
118 -7 52 -21 64 -42 40 -72 -15 -18 -31 -23 -82 -26 -35 -2 -102 -7 -150 -11
-146 -13 -205 13 -105 45 56 18 67 28 26 22 -41 -6 -33 7 36 58 120 88 126 92
175 86 25 -3 72 -8 105 -12z m-2405 -129 c0 -22 -4 -25 -35 -25 -31 0 -35 3
-35 25 0 22 4 25 35 25 31 0 35 -3 35 -25z m1955 -10 c0 -16 -7 -20 -35 -20
-29 0 -36 4 -38 23 -3 21 0 23 35 20 30 -2 38 -7 38 -23z m-1699 0 c30 -12 33
-17 23 -33 -8 -13 -23 -19 -47 -18 -29 1 -39 -4 -49 -24 -19 -34 -10 -107 14
-132 17 -16 23 -17 47 -7 21 10 29 10 39 0 16 -16 -2 -43 -37 -55 -65 -24
-126 40 -126 131 0 69 22 117 63 137 39 19 31 19 73 1z m391 0 c35 -15 35 -16
18 -35 -14 -15 -22 -17 -36 -9 -11 5 -24 7 -29 4 -21 -13 -8 -42 35 -78 39
-33 45 -43 45 -77 0 -48 -30 -80 -75 -80 -56 0 -93 42 -61 69 10 9 16 8 26 -4
18 -22 48 -18 55 6 6 18 -3 31 -44 69 -52 48 -61 72 -40 111 9 18 40 37 62 38
4 1 24 -6 44 -14z m918 3 c27 -12 32 -27 13 -46 -8 -8 -17 -8 -30 -1 -10 5
-23 7 -28 4 -22 -13 -8 -44 35 -79 39 -33 45 -42 45 -76 0 -65 -49 -95 -115
-70 -31 12 -42 35 -25 55 10 12 15 12 36 -1 13 -9 31 -14 39 -10 28 10 15 43
-35 85 -38 32 -50 49 -50 70 0 30 15 53 45 69 26 15 38 15 70 0z m192 -3 c35
-15 35 -16 18 -35 -14 -15 -22 -17 -36 -9 -11 5 -24 7 -29 4 -21 -13 -8 -40
37 -80 37 -33 46 -47 46 -73 0 -69 -74 -104 -135 -64 -25 16 -26 20 -14 37 12
16 17 17 44 6 66 -27 71 22 7 74 -24 20 -47 46 -51 57 -8 27 13 73 39 86 30
14 32 14 74 -3z m-1313 -12 c12 -40 56 -236 56 -250 0 -9 -8 -13 -22 -11 -15
2 -25 13 -32 36 -8 29 -13 33 -40 30 -27 -3 -31 -7 -34 -35 -3 -28 -7 -33 -29
-33 -25 0 -25 2 -20 44 4 25 16 88 28 140 l22 96 33 0 c22 0 34 -5 38 -17z
m326 -34 l0 -50 33 3 c31 3 32 5 35 51 3 43 5 48 25 45 21 -3 22 -7 22 -138 0
-132 -1 -135 -22 -138 -21 -3 -22 1 -25 65 l-3 68 -32 3 -33 3 0 -70 c0 -69
-1 -71 -25 -71 l-25 0 0 140 0 140 25 0 c23 0 25 -3 25 -51z m352 -61 l3 -113
48 -3 c42 -3 47 -5 47 -28 0 -23 -2 -24 -75 -24 l-75 0 0 140 0 140 25 0 c24
0 24 0 27 -112z m288 92 c0 -17 -7 -20 -50 -20 -49 0 -50 -1 -50 -30 0 -28 2
-30 40 -30 36 0 40 -2 40 -25 0 -22 -4 -25 -40 -25 l-40 0 0 -40 0 -40 50 0
c47 0 50 -2 50 -25 0 -24 -2 -25 -75 -25 l-75 0 0 140 0 140 75 0 c68 0 75 -2
75 -20z m-1412 -32 c-7 -20 -68 -23 -68 -4 0 12 10 16 36 16 24 0 34 -4 32
-12z m1962 2 c0 -5 -18 -10 -40 -10 -22 0 -40 5 -40 10 0 6 18 10 40 10 22 0
40 -4 40 -10z m-2 -52 c3 -25 0 -28 -27 -28 -17 0 -34 0 -38 -1 -11 0 -16 29
-9 47 4 10 16 14 38 12 28 -2 34 -8 36 -30z m-1960 -20 c3 -37 3 -38 -32 -38
-32 0 -36 3 -36 25 0 17 6 25 18 26 16 1 16 2 0 6 -31 8 -19 24 15 21 29 -3
32 -6 35 -40z m2263 -10 c50 -17 109 -56 109 -72 0 -16 -86 -131 -246 -331
-169 -212 -153 -198 -274 -222 -293 -59 -298 -59 -350 -23 -14 10 -54 30 -90
45 -36 15 -67 30 -70 34 -3 3 -16 7 -30 9 -14 1 -43 11 -65 21 -22 11 -57 22
-77 25 -84 15 -21 56 84 56 51 0 60 -3 67 -22 7 -18 23 -25 87 -39 43 -9 88
-20 98 -24 14 -6 17 -5 12 3 -9 15 18 15 101 0 95 -17 102 3 11 31 -54 17
-100 23 -178 24 -103 2 -105 3 -108 26 -4 23 11 41 36 41 6 0 12 -8 13 -17 0
-14 2 -13 9 4 7 17 20 23 57 27 26 3 86 13 133 23 149 29 149 29 239 -17 79
-39 109 -47 76 -20 -26 21 -17 28 33 27 l47 -2 5 115 c5 110 7 118 42 181 45
80 58 91 111 100 65 10 81 10 118 -3z m-306 -18 c4 -6 -10 -9 -37 -9 l-43 2
35 7 c19 4 36 8 37 9 1 0 5 -3 8 -9z m5 -30 c0 -5 -6 -10 -12 -10 -10 0 -9 -3
1 -9 20 -13 4 -31 -29 -31 -29 0 -53 21 -32 28 6 2 8 10 5 18 -4 10 4 14 31
14 20 0 36 -4 36 -10z m-1962 -25 c2 -23 -2 -25 -39 -25 -33 0 -40 3 -35 16 3
9 6 20 6 25 0 5 15 9 33 9 28 0 33 -4 35 -25z m2 -80 c0 -45 0 -45 -35 -45
-30 0 -35 3 -34 23 1 12 -1 29 -5 39 -8 17 7 25 52 27 20 1 22 -4 22 -44z
m1960 10 c0 -34 -1 -35 -39 -35 -32 0 -39 3 -36 18 2 9 4 25 4 35 1 13 10 17
36 17 33 0 35 -2 35 -35z m-16 -51 c9 -3 16 -15 16 -25 0 -15 -7 -19 -40 -19
-43 0 -49 9 -24 34 17 18 24 19 48 10z m-1946 -36 c-2 -18 -11 -24 -35 -26
-30 -3 -33 -1 -33 22 0 23 4 26 36 26 31 0 35 -3 32 -22z m1851 -68 l1 -70
-50 20 c-64 25 -108 25 -190 -1 -36 -11 -75 -18 -86 -15 -20 5 -64 -5 -199
-47 -55 -16 -725 -17 -746 -1 -23 19 -161 54 -211 54 -25 0 -65 7 -88 15 -54
19 -128 19 -174 0 l-36 -15 0 40 0 40 63 2 62 2 -62 3 c-55 3 -63 7 -63 23 0
20 14 20 889 20 l889 0 1 -70z m105 23 c-3 -63 -3 -63 -39 -63 -41 0 -48 19
-7 21 l27 2 -28 4 c-35 6 -33 36 3 42 l25 4 -25 8 c-22 6 -21 7 10 8 33 1 36
-1 34 -26z m-1964 -3 c-10 -6 -11 -10 -2 -10 26 0 12 -30 -15 -31 l-28 -1 30
-8 c28 -7 29 -8 5 -10 l-25 -2 25 -8 c22 -7 21 -8 -12 -9 l-38 -1 0 45 0 45
38 0 c27 0 33 -3 22 -10z m1953 -77 c-13 -2 -33 -2 -45 0 -13 2 -3 4 22 4 25
0 35 -2 23 -4z m-2447 -94 c43 -22 93 -48 109 -56 17 -9 48 -32 70 -53 49 -45
137 -107 173 -122 15 -6 59 -15 97 -19 93 -11 96 -12 90 -17 -2 -2 6 -12 18
-22 21 -17 18 -18 -98 -14 l-120 4 43 -40 42 -41 -37 7 c-21 3 -40 6 -43 6
-32 0 -49 -9 -93 -50 -65 -61 -109 -90 -124 -85 -6 2 -25 -3 -42 -12 -17 -8
-31 -12 -31 -9 0 4 -9 -1 -20 -11 -16 -14 -25 -16 -42 -8 -22 11 -22 11 -3 19
19 7 92 60 145 104 23 19 20 18 -25 -3 -106 -52 -189 -89 -268 -121 -45 -19
-116 -50 -158 -69 -49 -23 -104 -39 -153 -46 -137 -19 -169 -16 -263 31 -47
23 -95 51 -107 62 -13 12 -37 32 -56 46 -18 14 -40 32 -48 42 -8 9 -21 14 -27
11 -7 -2 -16 1 -21 8 -5 8 -3 10 7 5 8 -4 4 1 -9 12 -12 11 -31 40 -42 64 -16
36 -20 39 -20 18 0 -29 -15 -56 -23 -43 -3 5 -7 29 -9 52 -2 51 -11 42 179
177 119 85 138 95 209 111 57 12 90 26 127 54 l50 38 41 -21 c64 -32 277 -160
273 -164 -4 -5 -58 12 -177 55 -85 31 -187 41 -235 22 -16 -7 -13 -9 18 -15
72 -14 292 -129 265 -139 -9 -3 -7 -7 6 -12 11 -5 84 7 185 29 91 20 178 36
193 36 15 0 83 -20 150 -44 67 -25 124 -43 126 -41 11 11 -80 75 -198 137 -36
19 -76 41 -90 48 -14 8 -34 15 -45 17 -11 2 -21 8 -23 13 -2 6 -7 10 -12 10
-5 0 -29 9 -55 20 l-47 20 23 20 c13 11 29 19 35 20 6 0 47 -18 90 -41z m3229
-15 c-230 -79 -408 -117 -446 -93 -14 8 103 98 130 100 9 0 28 3 44 5 42 7 32
-11 -13 -25 -48 -14 -110 -49 -110 -62 0 -13 6 -12 68 21 31 16 68 31 82 34
14 3 61 16 105 30 57 18 103 25 160 25 l80 -1 -100 -34z m358 -25 c174 -86
387 -211 387 -227 0 -14 -47 -62 -96 -97 -55 -40 -200 -156 -229 -184 -75 -70
-200 -146 -260 -156 -22 -4 -49 -12 -59 -17 -14 -8 -21 -6 -28 5 -4 9 -25 21
-46 28 -20 7 -53 22 -73 35 -20 13 -39 20 -42 17 -3 -3 -15 3 -26 13 -11 11
-37 28 -58 39 -21 11 -51 29 -68 41 -45 31 -105 56 -121 50 -7 -3 -13 0 -11 6
1 6 -10 14 -25 18 -16 5 -51 33 -79 64 -28 31 -55 53 -60 50 -16 -9 -109 -21
-114 -14 -5 8 66 67 115 97 76 45 100 47 234 19 138 -29 150 -30 119 -13 -12
7 -21 17 -21 22 3 22 91 74 130 77 13 1 104 -25 203 -57 99 -32 187 -60 195
-62 32 -10 -28 30 -100 67 -79 40 -202 84 -260 95 -23 4 -68 -3 -135 -20 -55
-15 -111 -29 -125 -32 -50 -9 3 16 95 46 112 36 361 128 383 141 30 17 50 11
175 -51z m-3716 -5 c53 -18 153 -74 153 -86 0 -14 -123 -8 -173 7 -26 8 -70
27 -97 42 -48 27 -49 28 -27 40 31 17 88 16 144 -3z m2864 -119 c46 -9 91 -18
99 -21 33 -13 -38 -25 -170 -31 l-135 -5 -50 -42 c-27 -23 -69 -50 -92 -60
-42 -19 -59 -39 -46 -58 3 -7 1 -8 -5 -4 -15 9 -54 -12 -47 -24 4 -6 -2 -7
-12 -3 -10 3 -15 2 -10 -2 4 -5 -21 -26 -55 -48 -51 -32 -83 -44 -179 -63
-177 -35 -305 -88 -549 -228 -63 -36 -120 -66 -126 -66 -6 0 -17 -7 -24 -15
-7 -9 -15 -13 -18 -10 -3 3 -12 -1 -21 -9 -9 -7 -27 -16 -41 -20 -14 -3 -19
-3 -12 0 6 3 9 10 6 15 -4 6 -10 6 -17 1 -17 -14 -194 -72 -218 -72 -11 0 -22
-7 -25 -15 -4 -9 -15 -13 -30 -11 -13 3 -26 0 -30 -5 -3 -5 -10 -7 -15 -4 -5
4 -9 2 -9 -3 0 -6 -9 -8 -20 -5 -11 3 -20 1 -20 -4 0 -5 -6 -10 -12 -10 -7 0
-47 -11 -88 -23 -41 -13 -78 -25 -82 -26 -5 -1 -11 -3 -15 -4 -5 -1 -12 -2
-16 -1 -4 1 -10 -6 -13 -14 -5 -11 -10 -13 -19 -5 -9 8 -15 8 -20 0 -3 -5 -14
-10 -24 -10 -9 0 -22 -5 -29 -12 -10 -10 -7 -15 10 -26 13 -8 15 -11 6 -8 -10
3 -18 0 -18 -6 0 -7 -5 -6 -15 2 -8 7 -12 16 -9 21 3 5 -2 9 -10 9 -18 0 -21
16 -6 25 18 11 11 26 -7 16 -36 -18 -119 -43 -165 -48 -39 -4 -47 -2 -51 13
-4 16 -5 15 -6 -3 0 -13 -7 -24 -13 -24 -27 -3 -53 3 -63 13 -7 7 -1 9 18 4
15 -3 27 -4 27 -2 0 2 3 11 6 20 3 9 1 16 -5 16 -6 0 -11 -7 -11 -15 0 -12 -4
-13 -18 -4 -12 8 -17 20 -14 34 3 19 14 25 60 33 32 6 77 8 102 5 50 -5 97 11
145 51 37 31 19 33 -42 5 -25 -11 -61 -19 -81 -18 -21 1 -63 -1 -95 -6 -63 -8
-82 0 -98 43 -11 28 8 78 42 109 42 38 94 54 173 52 81 -2 113 11 155 63 l24
30 -48 -25 c-27 -15 -53 -23 -58 -20 -6 4 -7 1 -2 -6 5 -9 2 -12 -11 -9 -16 3
-19 11 -17 53 4 67 22 131 41 145 4 3 15 17 25 33 10 15 24 27 32 27 9 0 46
-16 84 -35 80 -40 125 -52 237 -64 62 -6 91 -15 120 -34 46 -32 57 -27 21 11
-34 35 -34 42 -1 42 50 0 319 42 399 62 117 29 126 40 27 33 l-83 -6 16 38
c23 54 48 77 118 109 83 37 156 42 227 15 83 -32 88 -36 67 -59 -27 -29 -20
-32 26 -12 61 26 161 34 225 17 43 -12 50 -12 41 -1 -17 21 35 38 115 38 55
-1 65 2 52 11 -9 7 -16 14 -16 17 0 3 42 21 93 41 310 122 284 116 418 92z
m-1847 -201 c9 -3 16 -11 16 -16 0 -6 -22 -7 -59 -3 -38 4 -61 3 -65 -4 -5 -7
10 -11 45 -11 54 0 134 -30 219 -81 42 -26 43 -28 20 -33 -14 -3 -49 -10 -79
-17 -50 -11 -137 -8 -216 7 -39 7 -40 9 -26 40 10 23 9 30 -9 49 -26 27 -25
39 3 58 22 16 120 23 151 11z m-516 -111 c-24 -57 -69 -106 -115 -129 -19 -8
-42 -23 -52 -32 -26 -26 -102 -74 -108 -69 -3 3 1 38 9 78 l13 72 55 24 c30
14 91 42 135 64 44 21 81 39 82 39 1 0 -7 -21 -19 -47z m2326 15 l99 -33 28
-60 c25 -56 63 -204 54 -213 -8 -8 -45 10 -40 19 4 5 -1 9 -9 9 -8 0 -20 8
-25 18 -6 9 -11 13 -11 8 0 -6 -16 17 -36 49 -19 33 -39 62 -43 65 -21 14
-139 170 -128 170 6 0 57 -14 111 -32z m-97 -66 c34 -37 61 -71 60 -76 -4 -11
-37 -18 -37 -8 0 4 -14 13 -31 21 -33 15 -149 118 -149 133 0 5 20 7 48 3 42
-6 54 -14 109 -73z m-191 43 c21 -14 54 -72 54 -97 0 -7 9 -37 20 -66 27 -72
27 -96 -2 -88 -37 12 -51 12 -55 0 -6 -18 45 -34 109 -34 76 0 139 -28 168
-74 26 -43 25 -76 -2 -111 -20 -26 -25 -27 -72 -20 -28 4 -70 7 -94 6 -32 -1
-57 6 -98 30 -62 35 -78 34 -39 -5 46 -46 84 -60 180 -63 118 -4 119 -4 127
-17 13 -19 9 -76 -6 -82 -28 -11 -182 16 -231 41 -56 28 -70 25 -35 -8 35 -31
70 -45 132 -52 68 -8 106 -23 111 -43 3 -12 5 -10 6 6 1 25 26 30 35 7 11 -29
-4 -45 -37 -40 -62 9 -138 34 -182 60 -42 24 -54 24 -37 -1 4 -6 21 -18 37
-27 17 -9 23 -16 15 -17 -9 0 -24 6 -35 13 -11 7 -48 22 -82 32 -62 18 -75 35
-27 35 13 0 24 -6 24 -12 0 -9 3 -9 9 1 7 11 3 18 -14 27 -23 12 -120 42 -158
49 -9 2 -21 6 -26 9 -8 6 -56 15 -96 19 -11 1 -23 6 -26 10 -3 4 -25 10 -50
13 -24 3 -48 9 -54 14 -6 5 -17 5 -25 0 -8 -5 -17 -7 -22 -4 -4 3 -53 7 -110
10 -129 7 -223 12 -223 14 0 0 -25 3 -55 5 -33 3 -60 0 -69 -8 -10 -8 -13 -8
-8 -1 4 7 -2 14 -13 17 -11 3 -23 1 -26 -4 -3 -6 -11 -5 -20 2 -7 6 -21 9 -29
5 -8 -3 -15 -3 -15 0 0 16 134 129 183 153 15 8 27 18 27 23 0 4 4 8 9 8 5 0
33 16 62 35 48 31 265 125 289 125 7 0 6 -8 -1 -22 l-12 -22 29 19 c16 10 38
24 49 31 11 6 48 17 83 22 40 7 83 24 120 47 85 52 156 62 208 30z m948 -243
c3 -5 -1 -9 -9 -9 -8 0 -12 4 -9 9 3 4 7 8 9 8 2 0 6 -4 9 -8z m-2294 -237 c0
-2 -9 -3 -19 -2 -11 0 -18 5 -15 9 4 6 34 0 34 -7z m-571 -128 c8 -10 7 -14
-3 -14 -7 0 -42 -13 -77 -30 -73 -35 -145 -57 -159 -48 -6 3 -10 1 -10 -5 0
-19 -45 -6 -48 14 -6 28 13 40 32 21 14 -15 16 -15 16 -1 0 9 7 17 15 17 8 1
18 2 23 3 4 2 37 6 75 10 37 5 70 12 73 17 3 5 9 7 14 4 4 -3 13 2 20 10 15
18 15 18 29 2z m-9 -36 c0 -11 -45 -44 -72 -54 -32 -12 -19 9 17 26 19 9 35
21 35 27 0 5 5 10 10 10 6 0 10 -4 10 -9z m-134 -76 c-11 -8 -31 -15 -45 -14
-24 0 -23 2 9 14 46 18 59 18 36 0z m2250 -6 c8 -14 -10 -11 -32 6 -18 13 -18
14 4 8 12 -3 25 -9 28 -14z m-2331 -19 c-3 -5 -13 -10 -21 -10 -8 0 -14 5 -14
10 0 6 9 10 21 10 11 0 17 -4 14 -10z m2395 0 c0 -5 -7 -7 -15 -4 -8 4 -15 8
-15 10 0 2 7 4 15 4 8 0 15 -4 15 -10z"/>
<path d="M3046 5444 c-32 -31 -11 -84 32 -84 35 0 52 16 52 50 0 14 -5 31 -12
38 -17 17 -54 15 -72 -4z"/>
<path d="M2916 5374 c-19 -18 -21 -55 -4 -72 7 -7 24 -12 38 -12 49 0 68 51
32 83 -23 21 -46 22 -66 1z"/>
<path d="M3187 5372 c-24 -27 -21 -59 8 -78 23 -15 27 -15 50 0 46 30 26 96
-28 96 -8 0 -21 -8 -30 -18z"/>
<path d="M3042 5258 c-29 -29 -5 -88 36 -88 35 0 52 16 52 50 0 14 -5 31 -12
38 -7 7 -24 12 -38 12 -14 0 -31 -5 -38 -12z"/>
<path d="M2900 5151 c-15 -28 -12 -46 8 -64 37 -34 82 -15 82 33 0 14 -5 31
-12 38 -19 19 -66 15 -78 -7z"/>
<path d="M3178 5145 c-9 -20 -8 -31 2 -51 19 -34 68 -30 89 8 14 24 14 28 -3
47 -27 30 -73 28 -88 -4z"/>
<path d="M2605 5119 c-4 -6 -11 -23 -16 -37 -8 -24 -8 -23 -4 8 4 33 4 34 -10
16 -10 -14 -14 -41 -13 -85 l1 -66 7 50 7 50 1 -42 c1 -24 7 -43 12 -43 6 0
10 5 10 11 0 8 4 8 13 2 6 -6 33 -13 59 -16 54 -7 154 -55 243 -116 87 -59
106 -55 59 14 -87 128 -248 265 -313 265 -12 0 -27 -12 -36 -27 l-15 -28 6 28
c6 27 1 36 -11 16z"/>
<path d="M3425 5098 c-116 -60 -320 -266 -292 -294 3 -3 36 12 74 34 37 22
101 56 142 77 67 33 80 36 126 30 40 -5 55 -3 64 9 8 9 17 14 21 11 5 -3 11
-1 15 5 4 6 10 8 15 5 12 -7 21 39 14 73 -3 17 -18 41 -31 54 l-25 23 6 -25
c6 -23 5 -23 -5 -4 -14 28 -72 29 -124 2z"/>
<path d="M2538 5077 c-5 -10 -8 -40 -7 -65 0 -41 1 -44 10 -22 6 13 9 42 7 65
-2 29 -5 35 -10 22z"/>
<path d="M3041 5071 c-25 -47 -4 -85 45 -79 36 4 51 29 38 65 -12 36 -67 46
-83 14z"/>
<path d="M3013 4487 c-10 -16 10 -47 34 -54 34 -8 78 16 78 42 0 17 -7 20 -53
20 -30 0 -56 -3 -59 -8z"/>
<path d="M3030 4370 c-25 -5 -9 -7 55 -8 61 0 80 3 60 8 -37 9 -70 9 -115 0z"/>
<path d="M3047 4324 c-14 -14 -6 -20 28 -20 20 0 34 5 32 11 -4 12 -50 19 -60
9z"/>
<path d="M2880 3962 c0 -41 144 -368 166 -376 28 -11 46 8 88 93 47 93 110
261 98 261 -10 0 -33 -46 -83 -165 -80 -193 -78 -189 -93 -176 -8 7 -37 67
-64 134 -88 213 -112 262 -112 229z"/>
<path d="M2381 3691 c14 -4 66 -11 115 -15 148 -12 325 -36 402 -56 39 -10 72
-14 72 -10 0 16 -92 50 -177 65 -94 17 -457 31 -412 16z"/>
<path d="M1506 2320 c16 -57 103 -244 110 -237 5 5 -105 268 -117 282 -5 5 -2
-15 7 -45z"/>
<path d="M2731 3115 c-51 -30 -95 -55 -96 -55 -12 0 -125 -74 -120 -78 13 -13
299 149 310 176 2 6 3 12 2 12 -2 0 -45 -25 -96 -55z"/>
<path d="M2470 2520 c96 -4 258 -4 360 0 154 6 126 7 -175 7 -291 0 -326 -2
-185 -7z"/>
<path d="M3488 2513 c12 -2 32 -2 45 0 12 2 2 4 -23 4 -25 0 -35 -2 -22 -4z"/>
<path d="M3428 2503 c6 -2 18 -2 25 0 6 3 1 5 -13 5 -14 0 -19 -2 -12 -5z"/>
<path d="M2907 2443 c18 -2 50 -2 70 0 21 2 7 4 -32 4 -38 0 -55 -2 -38 -4z"/>
<path d="M3783 2443 c15 -2 39 -2 55 0 15 2 2 4 -28 4 -30 0 -43 -2 -27 -4z"/>
<path d="M3543 2433 c37 -2 97 -2 135 0 37 2 6 3 -68 3 -74 0 -105 -1 -67 -3z"/>
<path d="M2535 2175 c-7 -51 -4 -60 19 -52 11 5 12 14 5 49 -6 23 -12 44 -13
46 -2 1 -7 -18 -11 -43z"/>
<path d="M2633 1903 c31 -2 83 -2 115 0 31 2 5 3 -58 3 -63 0 -89 -1 -57 -3z"/>
<path d="M2428 1893 c17 -2 47 -2 65 0 17 2 3 4 -33 4 -36 0 -50 -2 -32 -4z"/>
<path d="M3688 1893 c12 -2 32 -2 45 0 12 2 2 4 -23 4 -25 0 -35 -2 -22 -4z"/>
<path d="M3938 1883 c6 -2 18 -2 25 0 6 3 1 5 -13 5 -14 0 -19 -2 -12 -5z"/>
<path d="M3138 1863 c45 -2 119 -2 165 0 45 1 8 3 -83 3 -91 0 -128 -2 -82 -3z"/>
<path d="M3588 1863 c18 -2 45 -2 60 0 15 2 0 4 -33 4 -33 0 -45 -2 -27 -4z"/>
<path d="M3688 1863 c6 -2 18 -2 25 0 6 3 1 5 -13 5 -14 0 -19 -2 -12 -5z"/>
<path d="M3868 1853 c6 -2 18 -2 25 0 6 3 1 5 -13 5 -14 0 -19 -2 -12 -5z"/>
<path d="M3168 1793 c12 -2 32 -2 45 0 12 2 2 4 -23 4 -25 0 -35 -2 -22 -4z"/>
<path d="M3268 1793 c17 -2 47 -2 65 0 17 2 3 4 -33 4 -36 0 -50 -2 -32 -4z"/>
<path d="M2853 1783 c9 -2 25 -2 35 0 9 3 1 5 -18 5 -19 0 -27 -2 -17 -5z"/>
<path d="M2953 1773 c15 -2 37 -2 50 0 12 2 0 4 -28 4 -27 0 -38 -2 -22 -4z"/>
<path d="M3073 1763 c15 -2 39 -2 55 0 15 2 2 4 -28 4 -30 0 -43 -2 -27 -4z"/>
<path d="M1460 1441 c-94 -35 -160 -68 -160 -81 0 -20 31 -9 137 46 147 76
151 83 23 35z"/>
<path d="M1600 1279 c0 -5 5 -7 10 -4 6 3 10 8 10 11 0 2 -4 4 -10 4 -5 0 -10
-5 -10 -11z"/>
<path d="M1528 1258 c-9 -5 -6 -8 9 -8 12 0 24 4 27 8 7 11 -19 11 -36 0z"/>
<path d="M1449 1223 c-12 -16 -12 -17 2 -6 9 7 18 10 21 7 3 -3 9 -1 13 5 11
18 -22 12 -36 -6z"/>
<path d="M3280 1165 c0 -5 5 -17 10 -25 5 -8 10 -10 10 -5 0 6 -5 17 -10 25
-5 8 -10 11 -10 5z"/>
<path d="M2345 893 c-64 -54 -125 -112 -125 -117 0 -26 91 41 136 100 33 43
28 50 -11 17z"/>
<path d="M1948 818 c-2 -18 -13 -25 -45 -32 -24 -6 -43 -14 -43 -19 0 -9 55 0
83 15 9 5 17 20 17 33 0 31 -8 33 -12 3z"/>
<path d="M3848 885 c23 -46 78 -105 98 -105 8 0 14 2 14 5 0 2 -30 35 -66 72
-62 65 -64 66 -46 28z"/>
<path d="M4235 859 c-11 -17 1 -21 15 -4 8 9 8 15 2 15 -6 0 -14 -5 -17 -11z"/>
<path d="M4239 797 c17 -19 34 -27 55 -27 l31 1 -38 13 c-20 8 -45 20 -55 27
-9 7 -6 1 7 -14z"/>
<path d="M4288 663 c-19 -5 -26 -43 -8 -43 6 0 10 7 10 15 0 24 28 17 32 -7 3
-19 4 -20 10 -6 8 20 -20 46 -44 41z"/>
<path d="M3941 5704 c0 -11 3 -14 6 -6 3 7 2 16 -1 19 -3 4 -6 -2 -5 -13z"/>
<path d="M3963 5705 c2 -23 24 -37 187 -126 388 -210 682 -474 922 -824 219
-319 353 -649 429 -1050 20 -106 23 -152 23 -390 1 -219 -3 -290 -18 -375 -28
-163 -63 -320 -85 -380 -21 -60 -20 -71 3 -47 12 12 13 17 3 20 -8 3 -4 11 11
22 22 16 32 42 11 29 -7 -4 -10 -1 -7 7 3 8 10 14 17 14 27 0 92 258 117 464
87 733 -206 1537 -766 2100 -121 123 -336 291 -480 378 -159 95 -332 173 -339
152 -1 -5 -9 -2 -16 8 -13 17 -13 17 -12 -2z"/>
<path d="M2125 5676 c-127 -47 -334 -170 -494 -293 -524 -404 -886 -1017 -998
-1688 -25 -155 -26 -554 0 -705 32 -186 82 -357 110 -371 19 -11 19 -3 -3 81
-64 247 -90 615 -61 870 67 585 337 1137 766 1566 182 182 333 293 604 444 74
41 141 85 149 98 18 28 8 28 -73 -2z"/>
<path d="M750 2586 c0 -8 5 -18 10 -21 6 -3 10 1 10 9 0 8 -4 18 -10 21 -5 3
-10 -1 -10 -9z"/>
</g>
</svg>
